<svg width="24" height="24" viewBox="0 0 24 24" fill="none" xmlns="http://www.w3.org/2000/svg">
<path d="M1.87173 6.99609L11.1249 11.4642C11.3658 11.5791 11.6874 11.6391 12.0056 11.6391C12.3239 11.6391 12.6455 11.5791 12.8859 11.4642L22.1391 6.99609C22.6256 6.76172 22.6256 6.37828 22.1391 6.14297L12.8859 1.67484C12.6455 1.56 12.3234 1.5 12.0056 1.5C11.6878 1.5 11.3658 1.56 11.1249 1.67484L1.87173 6.14297C1.38516 6.37828 1.38516 6.76078 1.87173 6.99609Z" fill="#1DA599"/>
<path d="M22.139 11.5735C22.139 11.5735 20.4492 10.7588 20.2251 10.6492C20.0011 10.5395 19.9406 10.5456 19.7053 10.6548C19.47 10.764 12.8803 13.9468 12.8803 13.9468C12.6025 14.0668 12.3025 14.1265 12 14.1221C11.6826 14.1221 11.3601 14.0617 11.1197 13.9468C11.1197 13.9468 4.70483 10.8531 4.4039 10.704C4.07811 10.547 3.98436 10.547 3.68765 10.6876L1.85952 11.5679C1.37296 11.8023 1.37296 12.1862 1.85952 12.421L11.1141 16.8892C11.3545 17.004 11.6766 17.064 11.9944 17.064C12.3122 17.064 12.6342 17.004 12.8751 16.8892L22.1283 12.422C22.6256 12.1913 22.6256 11.8088 22.139 11.5735Z" fill="#1DA599"/>
<path d="M22.1391 17.0037C22.1391 17.0037 20.4492 16.189 20.2252 16.0779C20.0011 15.9668 19.9406 15.9743 19.7053 16.0835C19.47 16.1928 12.8859 19.3826 12.8859 19.3826C12.6081 19.5023 12.3081 19.5619 12.0056 19.5575C11.6883 19.5575 11.3658 19.4975 11.1248 19.3826C11.1248 19.3826 4.71001 16.2889 4.40954 16.1398C4.08141 15.9809 3.98766 15.9809 3.69282 16.1234L1.86469 17.0037C1.37766 17.2381 1.37766 17.6215 1.86469 17.8568L11.1178 22.325C11.3583 22.445 11.6803 22.4998 11.9981 22.4998C12.3159 22.4998 12.638 22.4398 12.8784 22.325L22.1334 17.8592C22.6256 17.6215 22.6256 17.239 22.1391 17.0037Z" fill="#1DA599"/>
</svg>
