<svg width="24" height="24" viewBox="0 0 24 24" fill="none" xmlns="http://www.w3.org/2000/svg">
<path d="M20.16 12.7302C20.825 12.0661 21.3323 11.2609 21.6442 10.3743C21.9561 9.48776 22.0647 8.5424 21.9619 7.60818C21.8592 6.67397 21.5477 5.7748 21.0506 4.97718C20.5535 4.17956 19.8835 3.5039 19.09 3.00017C17.08 1.67017 14.39 1.66017 12.36 2.97017C10.6 4.10017 9.63 5.86017 9.46 7.68017C9.33 9.00017 8.83 10.2302 7.91 11.1502L7.88 11.1802C6.72 12.3402 6.72 14.1102 7.81 15.1902L8.8 16.1802C9.32392 16.7037 10.0343 16.9979 10.775 16.9979C11.5157 16.9979 12.2261 16.7037 12.75 16.1802C13.72 15.2102 15 14.6802 16.39 14.5302C17.76 14.3802 19.1 13.7802 20.16 12.7302ZM6.26 19.8602C6.53 20.4202 6.44 21.1002 5.97 21.5602C5.76644 21.7668 5.507 21.9095 5.2235 21.9708C4.94001 22.0321 4.64478 22.0094 4.37403 21.9053C4.10329 21.8013 3.8688 21.6205 3.69933 21.3851C3.52986 21.1497 3.43278 20.8699 3.42 20.5802C3.13023 20.5674 2.85049 20.4703 2.6151 20.3008C2.3797 20.1314 2.19889 19.8969 2.09484 19.6261C1.99079 19.3554 1.96802 19.0602 2.02934 18.7767C2.09065 18.4932 2.23337 18.2337 2.44 18.0302C2.9 17.5702 3.59 17.4702 4.14 17.7402L6.62 15.3102C6.76 15.5002 6.92 15.7202 7.1 15.9002L8.09 16.8902C8.3 17.0902 8.5 17.2602 8.76 17.4102L6.26 19.8602Z" fill="#1DA599"/>
</svg>
