<svg width="24" height="24" viewBox="0 0 24 24" fill="none" xmlns="http://www.w3.org/2000/svg">
<path fill-rule="evenodd" clip-rule="evenodd" d="M8.962 18.4691C6.019 16.2141 2 12.4891 2 8.96715C2 3.08315 7.5 0.886147 12 5.43015C16.5 0.886147 22 3.08315 22 8.96615C22 12.4891 17.98 16.2141 15.038 18.4691C13.706 19.4891 13.04 20.0001 12 20.0001C10.96 20.0001 10.294 19.4901 8.962 18.4691ZM16.5 6.25015C16.6989 6.25015 16.8897 6.32917 17.0303 6.46982C17.171 6.61047 17.25 6.80124 17.25 7.00015V8.25015H18.5C18.6989 8.25015 18.8897 8.32917 19.0303 8.46982C19.171 8.61047 19.25 8.80124 19.25 9.00015C19.25 9.19906 19.171 9.38983 19.0303 9.53048C18.8897 9.67113 18.6989 9.75015 18.5 9.75015H17.25V11.0001C17.25 11.1991 17.171 11.3898 17.0303 11.5305C16.8897 11.6711 16.6989 11.7501 16.5 11.7501C16.3011 11.7501 16.1103 11.6711 15.9697 11.5305C15.829 11.3898 15.75 11.1991 15.75 11.0001V9.75015H14.5C14.3011 9.75015 14.1103 9.67113 13.9697 9.53048C13.829 9.38983 13.75 9.19906 13.75 9.00015C13.75 8.80124 13.829 8.61047 13.9697 8.46982C14.1103 8.32917 14.3011 8.25015 14.5 8.25015H15.75V7.00015C15.75 6.80124 15.829 6.61047 15.9697 6.46982C16.1103 6.32917 16.3011 6.25015 16.5 6.25015Z" fill="#1DA599"/>
</svg>
