<svg width="242" height="54" viewBox="0 0 242 54" fill="none" xmlns="http://www.w3.org/2000/svg">
<path d="M2.56006 51L8.0739 44.1803C8.93718 43.1125 9.40812 41.781 9.40812 40.4079L9.40812 18.4762C9.40812 17.0212 9.93682 15.6158 10.8958 14.5216L18.4676 5.88196C21.019 2.97077 25.6186 3.20166 27.8656 6.35373L36.4399 18.3816" stroke="#FFC265" stroke-width="5" stroke-linecap="round"/>
<path d="M2.56006 51L2.56006 18.2625C2.56006 16.8623 3.04979 15.5061 3.94443 14.429L10.8689 6.09186C13.4089 3.03356 18.1671 3.24643 20.424 6.51934L26.1986 14.8937C27.102 16.2038 28.4889 17.1014 30.0542 17.3889L36.4399 18.5618" stroke="#1DA599" stroke-width="5" stroke-linecap="round"/>
<path d="M35.7199 44L38.2799 28.8C38.5359 27.2853 38.9199 26.016 39.4319 24.992C39.9653 23.968 40.6479 23.136 41.4799 22.496C42.3333 21.856 43.3466 21.3973 44.5199 21.12C45.7146 20.8427 47.1013 20.704 48.6799 20.704C49.5333 20.704 50.4186 20.7573 51.3359 20.864C52.2746 20.9493 53.1706 21.088 54.0239 21.28L54.0879 21.664C54.0026 22.0693 53.9386 22.592 53.8959 23.232C53.8746 23.872 53.8639 24.5227 53.8639 25.184C53.8639 25.824 53.8639 26.3573 53.8639 26.784V44H49.2879V26.4C49.2879 25.8453 49.2986 25.344 49.3199 24.896C49.3626 24.4267 49.4266 24 49.5119 23.616L50.1519 24.8C49.8959 24.7147 49.5653 24.6613 49.1599 24.64C48.7759 24.5973 48.3919 24.576 48.0079 24.576C46.8346 24.576 45.8959 24.736 45.1919 25.056C44.5093 25.3547 43.9866 25.824 43.6239 26.464C43.2613 27.104 42.9946 27.9147 42.8239 28.896L40.3279 44H35.7199ZM39.4319 37.632V33.856H51.3359V37.632H39.4319ZM59.3162 44V25.088C59.3162 24.6613 59.3055 24.1173 59.2842 23.456C59.2842 22.7733 59.2629 22.112 59.2202 21.472C59.1775 20.832 59.1029 20.32 58.9962 19.936L59.0922 19.68H63.7962V44H59.3162ZM77.0662 44V20.96H80.7462L92.9382 33.536V39.68L80.3302 26.656L81.6102 26.144V44H77.0662ZM91.2422 44V20.96H95.7862V44H91.2422ZM108.038 44.384C105.372 44.384 103.356 43.9467 101.99 43.072C100.646 42.1973 99.9744 40.7787 99.9744 38.816C99.9744 37.5573 100.284 36.5227 100.902 35.712C101.542 34.9013 102.428 34.304 103.558 33.92C104.71 33.5147 106.033 33.312 107.526 33.312C108.444 33.312 109.244 33.3867 109.926 33.536C110.609 33.664 111.228 33.8027 111.782 33.952V36.832C111.356 36.6827 110.812 36.5547 110.15 36.448C109.489 36.32 108.849 36.256 108.23 36.256C106.844 36.256 105.809 36.448 105.126 36.832C104.465 37.216 104.134 37.8667 104.134 38.784C104.134 39.6587 104.465 40.288 105.126 40.672C105.788 41.056 106.737 41.248 107.974 41.248C108.721 41.248 109.436 41.184 110.118 41.056C110.822 40.9067 111.441 40.6827 111.974 40.384L111.334 41.632C111.249 41.376 111.174 41.12 111.11 40.864C111.046 40.608 110.993 40.3413 110.95 40.064C110.929 39.7867 110.908 39.4773 110.886 39.136C110.886 38.7733 110.886 38.336 110.886 37.824V33.44C110.886 32.352 110.716 31.5307 110.374 30.976C110.033 30.4213 109.532 30.0587 108.87 29.888C108.209 29.696 107.388 29.6 106.406 29.6C105.51 29.6 104.646 29.696 103.814 29.888C102.982 30.0587 102.31 30.2613 101.798 30.496H101.478V26.944C102.246 26.6667 103.11 26.464 104.07 26.336C105.03 26.1867 105.99 26.112 106.95 26.112C108.145 26.112 109.244 26.2187 110.246 26.432C111.27 26.6453 112.156 27.0187 112.902 27.552C113.649 28.0853 114.225 28.8427 114.63 29.824C115.057 30.784 115.27 32.032 115.27 33.568V37.6C115.27 38.048 115.27 38.6133 115.27 39.296C115.292 39.9573 115.324 40.608 115.366 41.248C115.409 41.888 115.473 42.4 115.558 42.784L115.462 43.04C114.737 43.3173 113.948 43.5627 113.094 43.776C112.262 43.968 111.409 44.1173 110.534 44.224C109.66 44.3307 108.828 44.384 108.038 44.384ZM119.291 39.584H119.547C120.315 39.904 121.211 40.1813 122.235 40.416C123.281 40.6507 124.326 40.768 125.371 40.768C125.734 40.768 126.129 40.7573 126.555 40.736C126.982 40.6933 127.377 40.6187 127.739 40.512C128.123 40.4053 128.433 40.2133 128.667 39.936C128.923 39.6587 129.051 39.2853 129.051 38.816C129.051 38.2187 128.806 37.8027 128.315 37.568C127.825 37.3333 127.067 37.1307 126.043 36.96L124.539 36.704C122.833 36.4053 121.521 35.8933 120.603 35.168C119.686 34.4213 119.227 33.3227 119.227 31.872C119.227 30.8267 119.505 29.8773 120.059 29.024C120.635 28.1707 121.521 27.4987 122.715 27.008C123.931 26.496 125.521 26.24 127.483 26.24C128.401 26.24 129.243 26.304 130.011 26.432C130.801 26.5387 131.547 26.6987 132.251 26.912V30.592H131.995C131.185 30.272 130.406 30.048 129.659 29.92C128.913 29.792 128.145 29.728 127.355 29.728C126.161 29.728 125.222 29.8773 124.539 30.176C123.878 30.4533 123.547 30.9547 123.547 31.68C123.547 32.2347 123.793 32.6293 124.283 32.864C124.795 33.0987 125.531 33.3013 126.491 33.472L127.963 33.728C128.966 33.8773 129.873 34.144 130.683 34.528C131.515 34.912 132.177 35.4453 132.667 36.128C133.158 36.7893 133.403 37.6427 133.403 38.688C133.403 40.544 132.71 41.9413 131.323 42.88C129.958 43.7973 127.889 44.256 125.115 44.256C124.091 44.256 123.067 44.1707 122.043 44C121.019 43.8293 120.102 43.616 119.291 43.36V39.584ZM137.222 44V32.832C137.222 32.4053 137.212 31.8613 137.19 31.2C137.169 30.5173 137.137 29.856 137.094 29.216C137.073 28.5547 137.009 28.032 136.902 27.648L136.998 27.392C137.596 27.1787 138.289 26.9867 139.078 26.816C139.889 26.6453 140.732 26.5173 141.606 26.432C142.502 26.3253 143.398 26.272 144.294 26.272C144.678 26.272 145.094 26.2827 145.542 26.304C145.99 26.3253 146.438 26.368 146.886 26.432V30.08H146.598C146.278 29.9947 145.916 29.9413 145.51 29.92C145.105 29.8773 144.71 29.856 144.326 29.856C143.644 29.856 142.972 29.9093 142.31 30.016C141.649 30.1227 141.084 30.2507 140.614 30.4L141.286 29.376C141.564 29.952 141.702 30.944 141.702 32.352V44H137.222Z" fill="#1DA599"/>
<path d="M170.8 25.5L172.4 16C172.56 15.0533 172.8 14.26 173.12 13.62C173.453 12.98 173.88 12.46 174.4 12.06C174.933 11.66 175.567 11.3733 176.3 11.2C177.047 11.0267 177.913 10.94 178.9 10.94C179.433 10.94 179.987 10.9733 180.56 11.04C181.147 11.0933 181.707 11.18 182.24 11.3L182.28 11.54C182.227 11.7933 182.187 12.12 182.16 12.52C182.147 12.92 182.14 13.3267 182.14 13.74C182.14 14.14 182.14 14.4733 182.14 14.74V25.5H179.28V14.5C179.28 14.1533 179.287 13.84 179.3 13.56C179.327 13.2667 179.367 13 179.42 12.76L179.82 13.5C179.66 13.4467 179.453 13.4133 179.2 13.4C178.96 13.3733 178.72 13.36 178.48 13.36C177.747 13.36 177.16 13.46 176.72 13.66C176.293 13.8467 175.967 14.14 175.74 14.54C175.513 14.94 175.347 15.4467 175.24 16.06L173.68 25.5H170.8ZM173.12 21.52V19.16H180.56V21.52H173.12ZM185.548 25.5V13.68C185.548 13.4133 185.541 13.0733 185.528 12.66C185.528 12.2333 185.514 11.82 185.488 11.42C185.461 11.02 185.414 10.7 185.348 10.46L185.408 10.3H188.348V25.5H185.548ZM205.501 25.5V11.1H208.341V25.5H205.501ZM196.641 25.5V11.1H199.481V25.5H196.641ZM198.201 19.4V16.92H206.781V19.4H198.201ZM215.999 25.74C214.332 25.74 213.072 25.4667 212.219 24.92C211.379 24.3733 210.959 23.4867 210.959 22.26C210.959 21.4733 211.152 20.8267 211.539 20.32C211.939 19.8133 212.492 19.44 213.199 19.2C213.919 18.9467 214.746 18.82 215.679 18.82C216.252 18.82 216.752 18.8667 217.179 18.96C217.606 19.04 217.992 19.1267 218.339 19.22V21.02C218.072 20.9267 217.732 20.8467 217.319 20.78C216.906 20.7 216.506 20.66 216.119 20.66C215.252 20.66 214.606 20.78 214.179 21.02C213.766 21.26 213.559 21.6667 213.559 22.24C213.559 22.7867 213.766 23.18 214.179 23.42C214.592 23.66 215.186 23.78 215.959 23.78C216.426 23.78 216.872 23.74 217.299 23.66C217.739 23.5667 218.126 23.4267 218.459 23.24L218.059 24.02C218.006 23.86 217.959 23.7 217.919 23.54C217.879 23.38 217.846 23.2133 217.819 23.04C217.806 22.8667 217.792 22.6733 217.779 22.46C217.779 22.2333 217.779 21.96 217.779 21.64V18.9C217.779 18.22 217.672 17.7067 217.459 17.36C217.246 17.0133 216.932 16.7867 216.519 16.68C216.106 16.56 215.592 16.5 214.979 16.5C214.419 16.5 213.879 16.56 213.359 16.68C212.839 16.7867 212.419 16.9133 212.099 17.06H211.899V14.84C212.379 14.6667 212.919 14.54 213.519 14.46C214.119 14.3667 214.719 14.32 215.319 14.32C216.066 14.32 216.752 14.3867 217.379 14.52C218.019 14.6533 218.572 14.8867 219.039 15.22C219.506 15.5533 219.866 16.0267 220.119 16.64C220.386 17.24 220.519 18.02 220.519 18.98V21.5C220.519 21.78 220.519 22.1333 220.519 22.56C220.532 22.9733 220.552 23.38 220.579 23.78C220.606 24.18 220.646 24.5 220.699 24.74L220.639 24.9C220.186 25.0733 219.692 25.2267 219.159 25.36C218.639 25.48 218.106 25.5733 217.559 25.64C217.012 25.7067 216.492 25.74 215.999 25.74ZM225.111 12.86C224.658 12.86 224.278 12.7267 223.971 12.46C223.678 12.18 223.531 11.7933 223.531 11.3C223.531 10.82 223.678 10.4467 223.971 10.18C224.278 9.9 224.658 9.76 225.111 9.76C225.578 9.76 225.958 9.9 226.251 10.18C226.545 10.4467 226.691 10.82 226.691 11.3C226.691 11.7933 226.545 12.18 226.251 12.46C225.958 12.7267 225.578 12.86 225.111 12.86ZM222.111 30.3C221.725 30.3 221.385 30.2733 221.091 30.22C220.798 30.18 220.545 30.1267 220.331 30.06V27.78H220.531C220.705 27.8467 220.891 27.9 221.091 27.94C221.278 27.9933 221.518 28.02 221.811 28.02C222.411 28.02 222.878 27.86 223.211 27.54C223.558 27.22 223.731 26.7333 223.731 26.08V17.96C223.731 17.6933 223.725 17.3533 223.711 16.94C223.698 16.5267 223.678 16.12 223.651 15.72C223.638 15.3067 223.598 14.98 223.531 14.74L223.591 14.58H226.531V25.92C226.531 26.8133 226.358 27.5867 226.011 28.24C225.678 28.9067 225.178 29.4133 224.511 29.76C223.858 30.12 223.058 30.3 222.111 30.3ZM231.264 12.86C230.81 12.86 230.43 12.7267 230.124 12.46C229.83 12.18 229.684 11.7933 229.684 11.3C229.684 10.82 229.83 10.4467 230.124 10.18C230.43 9.9 230.81 9.76 231.264 9.76C231.73 9.76 232.11 9.9 232.404 10.18C232.697 10.4467 232.844 10.82 232.844 11.3C232.844 11.7933 232.697 12.18 232.404 12.46C232.11 12.7267 231.73 12.86 231.264 12.86ZM228.264 30.3C227.877 30.3 227.537 30.2733 227.244 30.22C226.95 30.18 226.697 30.1267 226.484 30.06V27.78H226.684C226.857 27.8467 227.044 27.9 227.244 27.94C227.43 27.9933 227.67 28.02 227.964 28.02C228.564 28.02 229.03 27.86 229.364 27.54C229.71 27.22 229.884 26.7333 229.884 26.08V17.96C229.884 17.6933 229.877 17.3533 229.864 16.94C229.85 16.5267 229.83 16.12 229.804 15.72C229.79 15.3067 229.75 14.98 229.684 14.74L229.744 14.58H232.684V25.92C232.684 26.8133 232.51 27.5867 232.164 28.24C231.83 28.9067 231.33 29.4133 230.664 29.76C230.01 30.12 229.21 30.3 228.264 30.3ZM171.56 34.1H174.42V42.88C174.42 44.0533 174.647 44.9133 175.1 45.46C175.553 46.0067 176.287 46.28 177.3 46.28C178.3 46.28 179.033 46.0067 179.5 45.46C179.967 44.9133 180.2 44.0533 180.2 42.88V34.1H183.06V42.78C183.06 44.74 182.58 46.2267 181.62 47.24C180.66 48.24 179.22 48.74 177.3 48.74C175.327 48.74 173.873 48.24 172.94 47.24C172.02 46.2267 171.56 44.74 171.56 42.78V34.1ZM186.427 48.5V41.68C186.427 41.4133 186.42 41.0733 186.407 40.66C186.393 40.2333 186.373 39.82 186.347 39.42C186.333 39.0067 186.293 38.68 186.227 38.44L186.287 38.28C186.687 38.1067 187.16 37.9533 187.707 37.82C188.253 37.6733 188.82 37.5533 189.407 37.46C190.007 37.3667 190.58 37.32 191.127 37.32C191.753 37.32 192.36 37.3933 192.947 37.54C193.547 37.6733 194.08 37.92 194.547 38.28C195.027 38.64 195.407 39.14 195.687 39.78C195.967 40.4067 196.107 41.2133 196.107 42.2V48.5H193.307V42.32C193.307 41.5867 193.2 41.0267 192.987 40.64C192.787 40.24 192.5 39.9667 192.127 39.82C191.767 39.66 191.347 39.58 190.867 39.58C190.467 39.58 190.06 39.6267 189.647 39.72C189.247 39.8133 188.893 39.92 188.587 40.04L189.007 39.34C189.073 39.54 189.127 39.8 189.167 40.12C189.207 40.44 189.227 40.8067 189.227 41.22V48.5H186.427ZM200.007 48.5V42.32C200.007 41.5867 199.907 41.0267 199.707 40.64C199.52 40.24 199.233 39.9667 198.847 39.82C198.473 39.66 198.02 39.58 197.487 39.58C197.153 39.58 196.813 39.62 196.467 39.7C196.133 39.7667 195.807 39.86 195.487 39.98L193.967 38.18C194.567 37.9267 195.2 37.72 195.867 37.56C196.547 37.4 197.22 37.32 197.887 37.32C198.527 37.32 199.14 37.3867 199.727 37.52C200.313 37.6533 200.84 37.9 201.307 38.26C201.773 38.6067 202.14 39.1 202.407 39.74C202.673 40.3667 202.807 41.1867 202.807 42.2V48.5H200.007ZM206.134 48.5V41.52C206.134 41.2533 206.127 40.9133 206.114 40.5C206.1 40.0733 206.08 39.66 206.054 39.26C206.04 38.8467 206 38.52 205.934 38.28L205.994 38.12C206.367 37.9867 206.8 37.8667 207.294 37.76C207.8 37.6533 208.327 37.5733 208.874 37.52C209.434 37.4533 209.994 37.42 210.554 37.42C210.794 37.42 211.054 37.4267 211.334 37.44C211.614 37.4533 211.894 37.48 212.174 37.52V39.8H211.994C211.794 39.7467 211.567 39.7133 211.314 39.7C211.06 39.6733 210.814 39.66 210.574 39.66C210.147 39.66 209.727 39.6933 209.314 39.76C208.9 39.8267 208.547 39.9067 208.254 40L208.674 39.36C208.847 39.72 208.934 40.34 208.934 41.22V48.5H206.134ZM218.323 48.74C216.657 48.74 215.397 48.4667 214.543 47.92C213.703 47.3733 213.283 46.4867 213.283 45.26C213.283 44.4733 213.477 43.8267 213.863 43.32C214.263 42.8133 214.817 42.44 215.523 42.2C216.243 41.9467 217.07 41.82 218.003 41.82C218.577 41.82 219.077 41.8667 219.503 41.96C219.93 42.04 220.317 42.1267 220.663 42.22V44.02C220.397 43.9267 220.057 43.8467 219.643 43.78C219.23 43.7 218.83 43.66 218.443 43.66C217.577 43.66 216.93 43.78 216.503 44.02C216.09 44.26 215.883 44.6667 215.883 45.24C215.883 45.7867 216.09 46.18 216.503 46.42C216.917 46.66 217.51 46.78 218.283 46.78C218.75 46.78 219.197 46.74 219.623 46.66C220.063 46.5667 220.45 46.4267 220.783 46.24L220.383 47.02C220.33 46.86 220.283 46.7 220.243 46.54C220.203 46.38 220.17 46.2133 220.143 46.04C220.13 45.8667 220.117 45.6733 220.103 45.46C220.103 45.2333 220.103 44.96 220.103 44.64V41.9C220.103 41.22 219.997 40.7067 219.783 40.36C219.57 40.0133 219.257 39.7867 218.843 39.68C218.43 39.56 217.917 39.5 217.303 39.5C216.743 39.5 216.203 39.56 215.683 39.68C215.163 39.7867 214.743 39.9133 214.423 40.06H214.223V37.84C214.703 37.6667 215.243 37.54 215.843 37.46C216.443 37.3667 217.043 37.32 217.643 37.32C218.39 37.32 219.077 37.3867 219.703 37.52C220.343 37.6533 220.897 37.8867 221.363 38.22C221.83 38.5533 222.19 39.0267 222.443 39.64C222.71 40.24 222.843 41.02 222.843 41.98V44.5C222.843 44.78 222.843 45.1333 222.843 45.56C222.857 45.9733 222.877 46.38 222.903 46.78C222.93 47.18 222.97 47.5 223.023 47.74L222.963 47.9C222.51 48.0733 222.017 48.2267 221.483 48.36C220.963 48.48 220.43 48.5733 219.883 48.64C219.337 48.7067 218.817 48.74 218.323 48.74ZM226.055 48.5V36.68C226.055 36.4133 226.049 36.0733 226.035 35.66C226.022 35.2333 226.002 34.82 225.975 34.42C225.962 34.02 225.922 33.7 225.855 33.46L225.915 33.3H228.855V38.9L228.255 37.98C228.669 37.7933 229.115 37.64 229.595 37.52C230.089 37.3867 230.655 37.32 231.295 37.32C231.949 37.32 232.555 37.4067 233.115 37.58C233.689 37.74 234.182 38.0133 234.595 38.4C235.022 38.7733 235.355 39.2733 235.595 39.9C235.835 40.5133 235.955 41.28 235.955 42.2V48.5H233.155V42.34C233.155 41.6333 233.049 41.0867 232.835 40.7C232.622 40.3 232.322 40.0267 231.935 39.88C231.562 39.72 231.122 39.64 230.615 39.64C230.335 39.64 230.042 39.6667 229.735 39.72C229.442 39.7733 229.162 39.8333 228.895 39.9C228.642 39.9667 228.442 40.0267 228.295 40.08L228.855 38.82V48.5H226.055Z" fill="#1DA599"/>
</svg>
