<svg width="24" height="24" viewBox="0 0 24 24" fill="none" xmlns="http://www.w3.org/2000/svg">
<path d="M22.212 5.65593C21.4489 5.99352 20.6396 6.2153 19.811 6.31393C20.6841 5.79106 21.3373 4.96866 21.649 3.99993C20.829 4.48793 19.93 4.82993 18.994 5.01493C18.3646 4.34151 17.5304 3.89489 16.621 3.74451C15.7116 3.59413 14.7779 3.74842 13.9653 4.18338C13.1526 4.61834 12.5064 5.30961 12.1271 6.14972C11.7478 6.98983 11.6568 7.93171 11.868 8.82893C10.2049 8.74572 8.57797 8.31365 7.09274 7.56079C5.60752 6.80793 4.29724 5.7511 3.247 4.45893C2.87529 5.09738 2.67996 5.82315 2.681 6.56193C2.681 8.01193 3.42 9.29293 4.541 10.0429C3.87702 10.022 3.22765 9.84267 2.647 9.51993V9.57093C2.64697 10.5368 2.98104 11.4729 3.59253 12.2206C4.20403 12.9682 5.05532 13.4814 6.002 13.6729C5.38564 13.8401 4.7393 13.8648 4.112 13.7449C4.37893 14.5763 4.89922 15.3034 5.6 15.8243C6.30078 16.3453 7.14696 16.6339 8.02 16.6499C7.15236 17.3314 6.15889 17.8351 5.09641 18.1323C4.03393 18.4295 2.92329 18.5143 1.828 18.3819C3.73972 19.6113 5.96511 20.264 8.238 20.2619C15.932 20.2619 20.138 13.8889 20.138 8.36193C20.138 8.18193 20.134 7.99993 20.126 7.82093C20.9444 7.22928 21.6508 6.49549 22.212 5.65593Z" fill="#1DA599"/>
</svg>
